<svg fill="none" height="40" viewBox="0 0 40 40" width="40" xmlns="http://www.w3.org/2000/svg"><path d="m27.4999 5.83325h3.3333c1.841 0 3.3334 1.49239 3.3334 3.33333v3.33332m-6.6667 21.6667h3.3333c1.841 0 3.3334-1.4924 3.3334-3.3334v-3.3333m-21.6667-21.66665h-3.33332c-1.84095 0-3.33334 1.49239-3.33334 3.33333v3.33332m6.66666 21.6667h-3.33332c-1.84095 0-3.33334-1.4924-3.33334-3.3334v-3.3333m6.66666 1.6667h3.3333c.9205 0 1.6667-.7462 1.6667-1.6667v-3.3333c0-.9205-.7462-1.6667-1.6667-1.6667h-3.3333c-.9205 0-1.6667.7462-1.6667 1.6667v3.3333c0 .9205.7462 1.6667 1.6667 1.6667zm11.6667-5.8334c0 .4603-.3731.8334-.8334.8334-.4602 0-.8333-.3731-.8333-.8334 0-.4602.3731-.8333.8333-.8333.4603 0 .8334.3731.8334.8333zm0 5c0 .4603-.3731.8334-.8334.8334-.4602 0-.8333-.3731-.8333-.8334 0-.4602.3731-.8333.8333-.8333.4603 0 .8334.3731.8334.8333zm5 0c0 .4603-.3731.8334-.8334.8334-.4602 0-.8333-.3731-.8333-.8334 0-.4602.3731-.8333.8333-.8333.4603 0 .8334.3731.8334.8333zm0-5c0 .4603-.3731.8334-.8334.8334-.4602 0-.8333-.3731-.8333-.8334 0-.4602.3731-.8333.8333-.8333.4603 0 .8334.3731.8334.8333zm-16.6667-5.8333h3.3333c.9205 0 1.6667-.7462 1.6667-1.6667v-3.3333c0-.9205-.7462-1.6666-1.6667-1.6666h-3.3333c-.9205 0-1.6667.7461-1.6667 1.6666v3.3333c0 .9205.7462 1.6667 1.6667 1.6667zm11.6667 0h3.3333c.9205 0 1.6667-.7462 1.6667-1.6667v-3.3333c0-.9205-.7462-1.6666-1.6667-1.6666h-3.3333c-.9205 0-1.6667.7461-1.6667 1.6666v3.3333c0 .9205.7462 1.6667 1.6667 1.6667z" stroke="#000" stroke-linecap="round" stroke-linejoin="round" stroke-width="2"/></svg>